
<svg xmlns="http://www.w3.org/2000/svg" version="1.1" xmlns:xlink="http://www.w3.org/1999/xlink" preserveAspectRatio="none" x="0px" y="0px" width="300px" height="300px" viewBox="0 0 300 300">
<defs>
<g id="Layer1_0_FILL">
<path fill="#000000" fill-opacity="0.7019607843137254" stroke="none" d="
M 184.1 3.65
Q 182.93515625 3.3908203125 181.75 3.15 166.421484375 0 149.7 0 133.3298828125 0 118.3 3.15 118.1693359375 3.1748046875 118.05 3.2 93.65 8.15 72.85 21.4 57.45 30.2 43.8 43.8 0 87.55 0 149.7 0 212.5 43.8 256.25 87.55 300 149.7 300 168.05 300 185.1 296.35 225.5 287 256.25 256.25 300 212.5 300 149.7 300 87.55 256.25 43.8 225.05 12.55 184.1 3.65
M 249.8 84.7
Q 252.95 87.9 252.95 92.3 252.95 96.7 249.8 99.75 246.75 102.9 242.35 102.9 237.9 102.9 234.75 99.75 231.7 96.7 231.7 92.3 231.7 87.9 234.75 84.7 237.9 81.65 242.35 81.65 246.75 81.65 249.8 84.7
M 204 27.25
L 207.6 28.95 186.25 48.4 176.05 42.65 204 27.25
M 180.95 85.6
L 177.3 83.9 172.45 52.25 182.3 56.9 180.95 85.6
M 201.6 72.7
L 198.45 62.75 202.4 63.8 203.1 73.5 201.6 72.7
M 210.9 52.95
L 212.35 53.75 204.35 59.5 201.05 57.1 210.9 52.95
M 205.8 61.75
L 207.05 63.35 205.15 63.35 162.85 46.85 158.75 42.4
Q 153.8 38.25 160.35 38.8
L 166.1 39.8 205.8 61.75
M 236 191.8
Q 238.8 189.05 242.8 189.05 246.6 189.05 249.45 191.8 252.3 194.6 252.3 198.55 252.3 202.55 249.45 205.25 246.6 208.05 242.8 208.05 238.8 208.05 236 205.25 233.15 202.55 233.15 198.55 233.15 194.6 236 191.8
M 256.45 135.25
Q 260.65 135.25 263.6 138.2 266.5 141.15 266.5 145.3 266.5 149.5 263.6 152.45 260.65 155.4 256.45 155.4 252.3 155.4 249.35 152.45 246.4 149.5 246.4 145.3 246.4 141.15 249.35 138.2 252.3 135.25 256.45 135.25
M 83.6 64.7
Q 81.9 63.1 81.9 60.75 81.9 58.5 83.6 56.8 85.15 55.2 87.55 55.2 89.8 55.2 91.5 56.8 93.1 58.5 93.1 60.75 93.1 63.1 91.5 64.7 89.8 66.4 87.55 66.4 85.15 66.4 83.6 64.7
M 55.4 87.4
Q 57.9 87.4 59.7 89.25 61.55 91.05 61.55 93.55 61.55 96.15 59.7 97.95 57.9 99.75 55.4 99.75 52.8 99.75 51 97.95 49.2 96.15 49.2 93.55 49.2 91.05 51 89.25 52.8 87.4 55.4 87.4
M 40.85 141.8
Q 43.65 141.8 45.6 143.75 47.6 145.75 47.6 148.5 47.6 151.3 45.6 153.25 43.65 155.25 40.85 155.25 38.15 155.25 36.1 153.25 34.15 151.3 34.15 148.5 34.15 145.75 36.1 143.75 38.15 141.8 40.85 141.8
M 102.1 237.6
Q 104.4 239.85 104.4 243.1 104.4 246.4 102.1 248.65 99.75 250.9 96.6 250.9 93.3 250.9 91.05 248.65 88.65 246.4 88.65 243.1 88.65 239.85 91.05 237.6 93.3 235.3 96.6 235.3 99.75 235.3 102.1 237.6
M 146.1 263.7
Q 143.6 261.2 143.6 257.7 143.6 254.2 146.1 251.8 148.6 249.35 152 249.35 155.5 249.35 158 251.8 160.45 254.2 160.45 257.7 160.45 261.2 158 263.7 155.5 266.05 152 266.05 148.6 266.05 146.1 263.7
M 55.9 210.9
Q 52.8 210.9 50.7 208.75 48.65 206.6 48.65 203.55 48.65 200.6 50.7 198.45 52.8 196.3 55.9 196.3 58.95 196.3 60.95 198.45 63.1 200.6 63.1 203.55 63.1 206.6 60.95 208.75 58.95 210.9 55.9 210.9
M 214.15 236.9
Q 216.75 239.6 216.75 243.25 216.75 246.95 214.15 249.55 211.55 252.3 207.85 252.3 204.1 252.3 201.5 249.55 198.9 246.95 198.9 243.25 198.9 239.6 201.5 236.9 204.1 234.3 207.85 234.3 211.55 234.3 214.15 236.9 Z"/>

<path fill="#FFFFFF" fill-opacity="0.8509803921568627" stroke="none" d="
M 216.75 243.25
Q 216.75 239.6 214.15 236.9 211.55 234.3 207.85 234.3 204.1 234.3 201.5 236.9 198.9 239.6 198.9 243.25 198.9 246.95 201.5 249.55 204.1 252.3 207.85 252.3 211.55 252.3 214.15 249.55 216.75 246.95 216.75 243.25 Z"/>

<path fill="#FFFFFF" fill-opacity="0.7019607843137254" stroke="none" d="
M 50.7 208.75
Q 52.8 210.9 55.9 210.9 58.95 210.9 60.95 208.75 63.1 206.6 63.1 203.55 63.1 200.6 60.95 198.45 58.95 196.3 55.9 196.3 52.8 196.3 50.7 198.45 48.65 200.6 48.65 203.55 48.65 206.6 50.7 208.75 Z"/>

<path fill="#FFFFFF" fill-opacity="0.8" stroke="none" d="
M 143.6 257.7
Q 143.6 261.2 146.1 263.7 148.6 266.05 152 266.05 155.5 266.05 158 263.7 160.45 261.2 160.45 257.7 160.45 254.2 158 251.8 155.5 249.35 152 249.35 148.6 249.35 146.1 251.8 143.6 254.2 143.6 257.7 Z"/>

<path fill="#FFFFFF" fill-opacity="0.7490196078431373" stroke="none" d="
M 104.4 243.1
Q 104.4 239.85 102.1 237.6 99.75 235.3 96.6 235.3 93.3 235.3 91.05 237.6 88.65 239.85 88.65 243.1 88.65 246.4 91.05 248.65 93.3 250.9 96.6 250.9 99.75 250.9 102.1 248.65 104.4 246.4 104.4 243.1 Z"/>

<path fill="#FFFFFF" fill-opacity="0.6509803921568628" stroke="none" d="
M 45.6 143.75
Q 43.65 141.8 40.85 141.8 38.15 141.8 36.1 143.75 34.15 145.75 34.15 148.5 34.15 151.3 36.1 153.25 38.15 155.25 40.85 155.25 43.65 155.25 45.6 153.25 47.6 151.3 47.6 148.5 47.6 145.75 45.6 143.75 Z"/>

<path fill="#FFFFFF" fill-opacity="0.6" stroke="none" d="
M 59.7 89.25
Q 57.9 87.4 55.4 87.4 52.8 87.4 51 89.25 49.2 91.05 49.2 93.55 49.2 96.15 51 97.95 52.8 99.75 55.4 99.75 57.9 99.75 59.7 97.95 61.55 96.15 61.55 93.55 61.55 91.05 59.7 89.25 Z"/>

<path fill="#FFFFFF" fill-opacity="0.5490196078431373" stroke="none" d="
M 81.9 60.75
Q 81.9 63.1 83.6 64.7 85.15 66.4 87.55 66.4 89.8 66.4 91.5 64.7 93.1 63.1 93.1 60.75 93.1 58.5 91.5 56.8 89.8 55.2 87.55 55.2 85.15 55.2 83.6 56.8 81.9 58.5 81.9 60.75 Z"/>

<path fill="#FFFFFF" fill-opacity="0.9490196078431372" stroke="none" d="
M 263.6 138.2
Q 260.65 135.25 256.45 135.25 252.3 135.25 249.35 138.2 246.4 141.15 246.4 145.3 246.4 149.5 249.35 152.45 252.3 155.4 256.45 155.4 260.65 155.4 263.6 152.45 266.5 149.5 266.5 145.3 266.5 141.15 263.6 138.2 Z"/>

<path fill="#FFFFFF" fill-opacity="0.9019607843137255" stroke="none" d="
M 242.8 189.05
Q 238.8 189.05 236 191.8 233.15 194.6 233.15 198.55 233.15 202.55 236 205.25 238.8 208.05 242.8 208.05 246.6 208.05 249.45 205.25 252.3 202.55 252.3 198.55 252.3 194.6 249.45 191.8 246.6 189.05 242.8 189.05 Z"/>

<path fill="#FFFFFF" stroke="none" d="
M 207.05 63.35
L 205.8 61.75 166.1 39.8 160.35 38.8
Q 153.8 38.25 158.75 42.4
L 162.85 46.85 205.15 63.35 207.05 63.35
M 212.35 53.75
L 210.9 52.95 201.05 57.1 204.35 59.5 212.35 53.75
M 198.45 62.75
L 201.6 72.7 203.1 73.5 202.4 63.8 198.45 62.75
M 177.3 83.9
L 180.95 85.6 182.3 56.9 172.45 52.25 177.3 83.9
M 207.6 28.95
L 204 27.25 176.05 42.65 186.25 48.4 207.6 28.95
M 252.95 92.3
Q 252.95 87.9 249.8 84.7 246.75 81.65 242.35 81.65 237.9 81.65 234.75 84.7 231.7 87.9 231.7 92.3 231.7 96.7 234.75 99.75 237.9 102.9 242.35 102.9 246.75 102.9 249.8 99.75 252.95 96.7 252.95 92.3 Z"/>
</g>

<g id="Layer0_0_FILL">
<path fill="#60F200" stroke="none" d="
M 661.45 337.2
L 661.45 146.7 415 146.7 415 337.2 661.45 337.2 Z"/>
</g>
</defs>

<g transform="matrix( 1, 0, 0, 1, 0,0) ">
<use xlink:href="#Layer1_0_FILL"/>
</g>

<g transform="matrix( 1, 0, 0, 1, 0,0) ">
<use xlink:href="#Layer0_0_FILL"/>
</g>
</svg>
