
<svg xmlns="http://www.w3.org/2000/svg" version="1.1" xmlns:xlink="http://www.w3.org/1999/xlink" preserveAspectRatio="none" x="0px" y="0px" width="300px" height="300px" viewBox="0 0 300 300">
<defs>
<g id="Layer1_0_FILL">
<path fill="#FFFFFF" fill-opacity="0.9490196078431372" stroke="none" d="
M 173.5 112.5
L 173.55 110.8 88.65 111.1 85 127.2 107.3 127.1 107.65 127.4
Q 108.05 127.65 108.4 127.95
L 108.5 128.55 94.3 189.8 124.45 190
Q 112.95 174.35 119.4 154.7 133.5 116.8 173.5 112.5
M 173.95 123.1
Q 189.95 124.55 193 142.3
L 209.2 142.1
Q 202.2 116.1 174.9 118.15 138.45 122.3 126 155.1
L 126.25 154.75
Q 117.8 181.5 138.4 194.95 161.05 206.55 187.4 187.8 187.65 187.45 188.3 187.3 188.95 187.25 189.05 187.9
L 189.1 188.55 188 197.4 201.15 193.75 209.15 156.35 174.8 156.35 166.3 168.25 183.2 168.6
Q 183.5 168.2 183.9 169.15
L 184.05 169.75
Q 184.4 170.05 184.1 170.4 181.85 172.65 180 173.55
L 180.35 173.85
Q 155.75 191 141 172.9
L 140.65 172.65
Q 133.65 161.55 140.9 145.35 154.3 121.85 173.95 123.1 Z"/>
</g>
</defs>

<g transform="matrix( 1, 0, 0, 1, 0,0) ">
<use xlink:href="#Layer1_0_FILL"/>
</g>
</svg>
